<?xml version="1.0" encoding="utf-8"?>
<!-- Generator: Adobe Illustrator 24.3.0, SVG Export Plug-In . SVG Version: 6.00 Build 0)  -->
<svg version="1.1" id="Layer_1" focusable="false" xmlns="http://www.w3.org/2000/svg" xmlns:xlink="http://www.w3.org/1999/xlink"
	 x="0px" y="0px" viewBox="0 0 448 512" style="enable-background:new 0 0 448 512;" xml:space="preserve">
<path d="M400,64h-48V12c0-6.6-5.4-12-12-12h-40c-6.6,0-12,5.4-12,12v52H160V12c0-6.6-5.4-12-12-12h-40c-6.6,0-12,5.4-12,12v52H48
	C21.5,64,0,85.5,0,112v352c0,26.5,21.5,48,48,48h352c26.5,0,48-21.5,48-48V112C448,85.5,426.5,64,400,64z M394,464H54
	c-3.3,0-6-2.7-6-6V160h352v298C400,461.3,397.3,464,394,464z"/>
<path d="M136.7,197.2c9.9,0,19.8,0.3,29.6-0.1c10.7-0.4,16.5,4.8,16.8,15c0.5,21,0.4,42.1,0,63.1c-0.2,9.4-5.1,15-15.5,14.9
	c-20.6-0.2-41.2-0.3-61.8,0c-11,0.2-16-5.6-16.2-15.6c-0.4-20.6-0.4-41.2,0-61.8c0.2-10,5.3-15.9,16.3-15.6
	C116.1,197.5,126.4,197.3,136.7,197.2z"/>
</svg>
